<?xml version="1.0" encoding="UTF-8" standalone="no"?>
<!-- Created with Inkscape (http://www.inkscape.org/) -->

<svg
   xmlns:dc="http://purl.org/dc/elements/1.1/"
   xmlns:cc="http://creativecommons.org/ns#"
   xmlns:rdf="http://www.w3.org/1999/02/22-rdf-syntax-ns#"
   xmlns:svg="http://www.w3.org/2000/svg"
   xmlns="http://www.w3.org/2000/svg"
   xmlns:sodipodi="http://sodipodi.sourceforge.net/DTD/sodipodi-0.dtd"
   xmlns:inkscape="http://www.inkscape.org/namespaces/inkscape"
   width="744.09448819"
   height="1052.3622047"
   id="svg3271"
   version="1.1"
   inkscape:version="0.48.5 r10040"
   sodipodi:docname="New document 1">
  <defs
     id="defs3273" />
  <sodipodi:namedview
     id="base"
     pagecolor="#ffffff"
     bordercolor="#666666"
     borderopacity="1.0"
     inkscape:pageopacity="0.0"
     inkscape:pageshadow="2"
     inkscape:zoom="0.35"
     inkscape:cx="233.11017"
     inkscape:cy="667.99451"
     inkscape:document-units="px"
     inkscape:current-layer="layer1"
     showgrid="false"
     inkscape:window-width="1280"
     inkscape:window-height="696"
     inkscape:window-x="0"
     inkscape:window-y="0"
     inkscape:window-maximized="1" />
  <metadata
     id="metadata3276">
    <rdf:RDF>
      <cc:Work
         rdf:about="">
        <dc:format>image/svg+xml</dc:format>
        <dc:type
           rdf:resource="http://purl.org/dc/dcmitype/StillImage" />
        <dc:title></dc:title>
      </cc:Work>
    </rdf:RDF>
  </metadata>
  <g
     inkscape:label="Layer 1"
     inkscape:groupmode="layer"
     id="layer1">
    <g
       id="g8819"
       transform="matrix(6.918919,0,0,7.1111108,-24.193049,-135.63568)"
       inkscape:export-filename="/Users/RafaelSousa/Projects/toArray/SuperLittleMonster/Assets/Textures/High-res icon.png"
       inkscape:export-xdpi="90"
       inkscape:export-ydpi="90">
      <path
         style="fill:#ff0751;fill-opacity:1;fill-rule:nonzero"
         inkscape:connector-curvature="0"
         id="path11-1"
         d="m 57.402196,35.493568 c 6.198754,-0.87529 13.698314,-1.141572 19.506948,1.370154 5.808634,2.511726 12.137146,8.524538 15.344852,13.700205 3.207707,5.175669 4.464891,11.416987 3.901394,17.353803 -0.563503,5.936813 -2.774223,13.966634 -7.282395,18.267089 -4.508168,4.300453 -12.484156,5.975261 -19.766632,7.535626 -7.282476,1.560366 -17.122594,3.386944 -23.928216,1.826578 -6.805622,-1.560371 -13.090942,-6.355537 -16.905512,-11.188777 -3.814574,-4.833241 -5.851916,-12.711069 -5.981929,-17.81067 -0.130012,-5.0996 2.297536,-8.7149 5.201853,-12.786919 2.904317,-4.072018 7.23911,-8.600681 12.224049,-11.645197 4.984941,-3.044514 11.486833,-5.746603 17.68559,-6.621892 z" />
      <path
         style="fill:#2ff3c1;fill-rule:nonzero"
         inkscape:connector-curvature="0"
         id="path13-7"
         d="m 49.599414,56.015845 0,0 c 0,-5.981304 5.881073,-10.830109 13.135747,-10.830109 l 0,0 c 3.483815,0 6.824942,1.141026 9.288376,3.172066 2.463428,2.031039 3.847368,4.78572 3.847368,7.658043 l 0,0 c 0,5.981303 -5.881076,10.83011 -13.135744,10.83011 l 0,0 c -7.254674,0 -13.135747,-4.848807 -13.135747,-10.83011 z" />
      <path
         style="fill:#000000;fill-rule:nonzero"
         inkscape:connector-curvature="0"
         id="path15-4"
         d="m 54.792121,56.015845 0,0 c 0,-3.89214 3.55622,-7.047343 7.94304,-7.047343 l 0,0 c 2.106625,0 4.126967,0.742486 5.616579,2.064118 1.489605,1.321634 2.326465,3.114152 2.326465,4.983225 l 0,0 c 0,3.89214 -3.556224,7.047346 -7.943044,7.047346 l 0,0 c -4.38682,0 -7.94304,-3.155206 -7.94304,-7.047346 z" />
      <path
         style="fill:#ffffff;fill-rule:nonzero"
         inkscape:connector-curvature="0"
         id="path17-0"
         d="m 62.604047,53.584684 0,0 c 0,-1.098957 1.105772,-1.98984 2.469813,-1.98984 l 0,0 c 0.655034,0 1.283242,0.209646 1.746422,0.582813 0.463179,0.373166 0.72339,0.879289 0.72339,1.407027 l 0,0 c 0,1.098958 -1.105772,1.989837 -2.469812,1.989837 l 0,0 c -1.364041,0 -2.469813,-0.890879 -2.469813,-1.989837 z" />
      <path
         style="fill:#ffffff;fill-rule:nonzero"
         inkscape:connector-curvature="0"
         id="path19-9"
         d="m 66.869026,75.875487 c -0.04837,0.382 0.312342,1.807439 -0.290236,2.291989 -0.602578,0.484556 -2.499162,0.74026 -3.325239,0.615335 -0.826079,-0.12492 -1.326259,-0.923879 -1.631229,-1.364873 -0.304971,-0.440995 -0.16549,-1.067576 -0.198588,-1.281089" />
      <path
         style="fill:#ffffff;fill-rule:nonzero"
         inkscape:connector-curvature="0"
         id="path21-4"
         d="m 72.484043,75.381914 c -0.04838,0.381999 0.312342,1.807439 -0.290242,2.291989 -0.60258,0.484556 -2.499159,0.74026 -3.325234,0.615335 -0.82608,-0.12492 -1.326262,-0.923879 -1.631232,-1.364873 -0.304971,-0.440995 -0.16549,-1.067576 -0.198588,-1.281089" />
      <path
         style="fill:#ffffff;fill-rule:nonzero"
         inkscape:connector-curvature="0"
         id="path23-8"
         d="m 56.260922,75.581867 c -0.04837,0.381999 -0.74846,1.745837 -0.290236,2.291989 0.458221,0.546152 2.215513,1.014023 3.039569,0.984922 0.824061,-0.02911 1.502546,-0.759619 1.904777,-1.159548 0.402232,-0.399929 0.423848,-1.033353 0.508615,-1.240023" />
      <path
         style="fill:#ffffff;fill-opacity:0;stroke:#5e0000;stroke-width:0.71392322;stroke-linecap:butt;stroke-linejoin:round;stroke-opacity:1"
         inkscape:connector-curvature="0"
         id="path27-8"
         d="m 49.078519,71.92721 c 1.690583,0.69984 6.372216,3.646523 10.143509,4.199042 3.771292,0.552517 9.40655,-0.478746 12.484243,-0.883942 3.077695,-0.40519 4.421437,-0.773684 5.981929,-1.547222 1.560485,-0.773537 2.817499,-2.57834 3.381002,-3.094004" />
      <path
         style="fill:#ff0751;fill-opacity:1;fill-rule:nonzero"
         inkscape:connector-curvature="0"
         id="path29-2"
         d="m 30.41987,52.401343 c 1.839401,-0.959725 4.582367,-4.963151 8.51933,-7.403597 3.936964,-2.440446 9.551975,-5.97772 15.102448,-7.239072 5.550473,-1.261355 13.81164,-0.712939 18.200386,-0.329049 4.388744,0.383889 6.195876,2.742072 8.132088,2.63239 1.936211,-0.109682 3.227017,-2.27592 3.48518,-3.290488 0.258163,-1.014567 -0.774485,-2.166238 -1.936211,-2.796914 -1.161727,-0.630676 -3.452912,-1.508141 -5.03415,-0.987146 -1.581238,0.520994 -3.904691,3.976006 -4.453286,4.113109 -0.548594,0.137103 1.193996,-2.440444 1.161727,-3.290488 -0.03227,-0.850043 -0.516322,-1.233932 -1.355348,-1.809768 -0.839026,-0.575835 -2.517075,-1.672665 -3.678801,-1.645244 -1.161727,0.02742 -2.484804,0.712939 -3.29156,1.809769 -0.806755,1.096829 -1.258537,4.496999 -1.548969,4.771207 -0.290431,0.274207 0.548593,-2.193658 -0.193621,-3.125964 -0.742213,-0.932305 -2.904317,-2.083976 -4.259665,-2.467865 -1.355347,-0.38389 -2.904317,-0.137103 -3.872422,0.164524 -0.968106,0.301628 -1.419888,0.685519 -1.936211,1.645244 -0.516324,0.959725 -0.709945,3.811482 -1.161727,4.113109 -0.451782,0.301628 -0.580864,-1.782346 -1.548969,-2.303341 -0.968106,-0.520994 -2.936588,-0.877463 -4.259665,-0.822622 -1.323077,0.05484 -3.033397,0.246787 -3.678802,1.151671 -0.645403,0.904884 -0.516321,3.263068 -0.193621,4.277634 0.322703,1.014566 2.678425,1.86461 2.129833,1.809768 -0.548593,-0.05484 -4.066044,-1.672664 -5.421392,-2.138817 -1.355348,-0.466154 -1.710319,-0.850042 -2.710696,-0.658098 -1.000374,0.191944 -2.549343,0.904885 -3.291559,1.809769 -0.742214,0.904884 -1.419888,2.413023 -1.161727,3.619536 0.258163,1.206513 2.807507,3.400169 2.710696,3.619536 -0.09681,0.219367 -2.162101,-1.86461 -3.291559,-2.303341 -1.129456,-0.438731 -2.613885,-0.74036 -3.485181,-0.329049 -0.871295,0.411311 -1.710319,1.837188 -1.74259,2.796915 -0.03227,0.959726 0.871295,2.193658 1.548969,2.961439 0.677674,0.767781 0.677674,2.604968 2.517075,1.645243 z" />
      <path
         style="fill:#ff0751;fill-opacity:1;fill-rule:nonzero"
         inkscape:connector-curvature="0"
         id="path31-4"
         d="m 35.058651,87.281028 c -0.811224,2.594693 -2.279742,8.406505 -1.459942,10.893569 0.819798,2.487063 3.699869,3.750963 6.378732,4.028823 2.67886,0.27786 8.234495,0.48415 9.694434,-2.361678 1.45994,-2.845832 0.932835,-11.840749 -0.934801,-14.713303 -1.867639,-2.87255 -7.991285,-2.880773 -10.27102,-2.522011 -2.279738,0.358767 -2.596181,2.079907 -3.407403,4.6746 z" />
      <path
         style="fill:#ff0751;fill-opacity:1;fill-rule:nonzero"
         inkscape:connector-curvature="0"
         id="path33-5"
         d="m 84.043091,83.38223 c 1.284146,2.376515 3.847292,7.764678 3.642751,10.340734 -0.204539,2.576057 -2.522186,4.344939 -4.869995,5.115606 -2.347815,0.770665 -7.296045,2.0085 -9.21687,-0.491616 -1.92083,-2.50012 -3.371747,-11.361912 -2.308083,-14.509094 1.063663,-3.147182 6.564699,-4.298054 8.690064,-4.373994 2.125366,-0.07594 2.777987,1.541848 4.062133,3.918364 z" />
      <path
         transform="matrix(0.97713688,0.27187883,-0.12803893,0.98885353,40.223689,-391.6112)"
         d="m 53.571427,442.71933 c 0,1.57796 -1.519034,2.85714 -3.392857,2.85714 -1.873823,0 -3.392857,-1.27918 -3.392857,-2.85714 0,-1.57796 1.519034,-2.85714 3.392857,-2.85714 1.873823,0 3.392857,1.27918 3.392857,2.85714 z"
         sodipodi:ry="2.8571429"
         sodipodi:rx="3.3928571"
         sodipodi:cy="442.71933"
         sodipodi:cx="50.17857"
         id="path6121-27-1"
         style="opacity:0.71951222;fill:#2ff3c1;fill-opacity:1;stroke:#005600;stroke-width:0.5;stroke-linecap:round;stroke-linejoin:round;stroke-miterlimit:4;stroke-opacity:1;stroke-dasharray:none;stroke-dashoffset:20.26474714"
         sodipodi:type="arc" />
      <path
         d="m 53.571427,442.71933 c 0,1.57796 -1.519034,2.85714 -3.392857,2.85714 -1.873823,0 -3.392857,-1.27918 -3.392857,-2.85714 0,-1.57796 1.519034,-2.85714 3.392857,-2.85714 1.873823,0 3.392857,1.27918 3.392857,2.85714 z"
         sodipodi:ry="2.8571429"
         sodipodi:rx="3.3928571"
         sodipodi:cy="442.71933"
         sodipodi:cx="50.17857"
         id="path6121-7-2-9"
         style="opacity:0.71951222;fill:#2ff3c1;fill-opacity:1;stroke:#005600;stroke-width:0.5;stroke-linecap:round;stroke-linejoin:round;stroke-miterlimit:4;stroke-opacity:1;stroke-dasharray:none;stroke-dashoffset:20.26474714"
         sodipodi:type="arc"
         transform="matrix(0.97713688,0.27187883,-0.12803893,0.98885353,38.268211,-382.09345)" />
      <path
         d="m 53.571427,442.71933 c 0,1.57796 -1.519034,2.85714 -3.392857,2.85714 -1.873823,0 -3.392857,-1.27918 -3.392857,-2.85714 0,-1.57796 1.519034,-2.85714 3.392857,-2.85714 1.873823,0 3.392857,1.27918 3.392857,2.85714 z"
         sodipodi:ry="2.8571429"
         sodipodi:rx="3.3928571"
         sodipodi:cy="442.71933"
         sodipodi:cx="50.17857"
         id="path6121-2-5-0"
         style="opacity:0.71951222;fill:#2ff3c1;fill-opacity:1;stroke:#005600;stroke-width:0.5;stroke-linecap:round;stroke-linejoin:round;stroke-miterlimit:4;stroke-opacity:1;stroke-dasharray:none;stroke-dashoffset:20.26474714"
         sodipodi:type="arc"
         transform="matrix(0.97713688,0.27187883,-0.12803893,0.98885353,47.306729,-384.88391)" />
      <path
         d="m 53.571427,442.71933 c 0,1.57796 -1.519034,2.85714 -3.392857,2.85714 -1.873823,0 -3.392857,-1.27918 -3.392857,-2.85714 0,-1.57796 1.519034,-2.85714 3.392857,-2.85714 1.873823,0 3.392857,1.27918 3.392857,2.85714 z"
         sodipodi:ry="2.8571429"
         sodipodi:rx="3.3928571"
         sodipodi:cy="442.71933"
         sodipodi:cx="50.17857"
         id="path6121-28-4-8"
         style="opacity:0.71951222;fill:#2ff3c1;fill-opacity:1;stroke:#005600;stroke-width:0.5;stroke-linecap:round;stroke-linejoin:round;stroke-miterlimit:4;stroke-opacity:1;stroke-dasharray:none;stroke-dashoffset:20.26474714"
         sodipodi:type="arc"
         transform="matrix(0.54908775,-0.09659766,-0.08115853,0.53769318,93.417058,-151.65993)" />
      <path
         d="m 53.571427,442.71933 c 0,1.57796 -1.519034,2.85714 -3.392857,2.85714 -1.873823,0 -3.392857,-1.27918 -3.392857,-2.85714 0,-1.57796 1.519034,-2.85714 3.392857,-2.85714 1.873823,0 3.392857,1.27918 3.392857,2.85714 z"
         sodipodi:ry="2.8571429"
         sodipodi:rx="3.3928571"
         sodipodi:cy="442.71933"
         sodipodi:cx="50.17857"
         id="path6121-29-7-3"
         style="opacity:0.71951222;fill:#2ff3c1;fill-opacity:1;stroke:#005600;stroke-width:0.5;stroke-linecap:round;stroke-linejoin:round;stroke-miterlimit:4;stroke-opacity:1;stroke-dasharray:none;stroke-dashoffset:20.26474714"
         sodipodi:type="arc"
         transform="matrix(0.49688314,-0.08741362,-0.08148884,0.53988155,100.857,-155.64122)" />
      <path
         d="m 53.571427,442.71933 c 0,1.57796 -1.519034,2.85714 -3.392857,2.85714 -1.873823,0 -3.392857,-1.27918 -3.392857,-2.85714 0,-1.57796 1.519034,-2.85714 3.392857,-2.85714 1.873823,0 3.392857,1.27918 3.392857,2.85714 z"
         sodipodi:ry="2.8571429"
         sodipodi:rx="3.3928571"
         sodipodi:cy="442.71933"
         sodipodi:cx="50.17857"
         id="path6121-4-3-1"
         style="opacity:0.71951222;fill:#2ff3c1;fill-opacity:1;stroke:#005600;stroke-width:0.5;stroke-linecap:round;stroke-linejoin:round;stroke-miterlimit:4;stroke-opacity:1;stroke-dasharray:none;stroke-dashoffset:20.26474714"
         sodipodi:type="arc"
         transform="matrix(0.37166997,-0.06538563,-0.0597714,0.39599872,96.176291,-89.437362)" />
    </g>
  </g>
</svg>
